Coordinates
version=1
nRows=43
nColumns=12
inDegrees=yes

Units are S.I. units (second, meters, Newtons, ...)
Angles are in degrees

endheader
time	SC_y	SC_z	SC_x	AC_y	AC_z	AC_x	GH_y	GH_z	GH_yy	EL_x	PS_y
       0.0               -59.3          29.47          39.69          46.75          1.026          14.71         -77.84          70.23         -163.2           80.5          121.8
   0.02305               -59.3          29.47          39.69          46.75          1.024          14.71         -77.83          70.23         -163.2          80.51          121.8
   0.04609              -59.29          29.47           39.7          46.75          1.022           14.7         -77.82          70.23         -163.2          80.51          121.8
   0.06914              -59.29          29.47          39.71          46.74           1.02           14.7          -77.8          70.23         -163.1          80.51          121.8
   0.09218              -59.28          29.47          39.71          46.74          1.018          14.69         -77.79          70.23         -163.1          80.52          121.8
    0.1152              -59.28          29.46          39.72          46.74          1.016          14.69         -77.77          70.23         -163.1          80.52          121.8
    0.1383              -59.27          29.46          39.73          46.74          1.014          14.68         -77.75          70.23         -163.1          80.52          121.8
    0.1613              -59.27          29.46          39.74          46.73          1.012          14.67         -77.73          70.23         -163.0          80.53          121.9
    0.1844              -59.26          29.46          39.75          46.73          1.009          14.67         -77.71          70.22         -163.0          80.53          121.9
    0.2074              -59.26          29.46          39.76          46.72          1.006          14.66         -77.69          70.22         -163.0          80.54          121.9
    0.2305              -59.25          29.45          39.77          46.72          1.003          14.65         -77.67          70.22         -162.9          80.54          121.9
    0.2535              -59.24          29.45          39.79          46.72            1.0          14.64         -77.64          70.22         -162.9          80.55          121.9
    0.2765              -59.23          29.45           39.8          46.71         0.9967          14.63         -77.62          70.22         -162.9          80.55          121.9
    0.2996              -59.23          29.45          39.81          46.71          0.993          14.62         -77.59          70.22         -162.8          80.56          121.9
    0.3226              -59.22          29.44          39.83           46.7          0.989          14.61         -77.56          70.22         -162.8          80.56          121.9
    0.3457              -59.21          29.44          39.85          46.69         0.9846           14.6         -77.52          70.21         -162.7          80.57          121.9
    0.3687               -59.2          29.44          39.86          46.69         0.9799          14.59         -77.49          70.21         -162.7          80.58          122.0
    0.3918              -59.19          29.43          39.88          46.68         0.9747          14.57         -77.44          70.21         -162.6          80.59          122.0
    0.4148              -59.17          29.43          39.91          46.67          0.969          14.56          -77.4          70.21         -162.5           80.6          122.0
    0.4379              -59.16          29.42          39.93          46.66         0.9629          14.54         -77.35           70.2         -162.5          80.61          122.0
    0.4609              -59.14          29.42          39.96          46.65         0.9561          14.52          -77.3           70.2         -162.4          80.62          122.0
     0.484              -59.13          29.41          39.99          46.64         0.9486           14.5         -77.24           70.2         -162.3          80.63          122.0
     0.507              -59.11          29.41          40.02          46.63         0.9403          14.48         -77.18          70.19         -162.2          80.64          122.1
      0.53              -59.09           29.4          40.05          46.62         0.9312          14.45         -77.11          70.19         -162.1          80.66          122.1
    0.5531              -59.07          29.39          40.09          46.61          0.921          14.42         -77.03          70.19         -162.0          80.68          122.1
    0.5761              -59.04          29.38          40.14          46.59         0.9097          14.39         -76.94          70.18         -161.8          80.69          122.2
    0.5992              -59.01          29.37          40.19          46.57          0.897          14.36         -76.84          70.18         -161.7          80.71          122.2
    0.6222              -58.98          29.36          40.24          46.55         0.8827          14.32         -76.73          70.17         -161.5          80.74          122.2
    0.6453              -58.94          29.35           40.3          46.53         0.8666          14.27          -76.6          70.16         -161.3          80.76          122.3
    0.6683               -58.9          29.34          40.38           46.5         0.8482          14.22         -76.46          70.15         -161.1          80.79          122.4
    0.6914              -58.86          29.32          40.46          46.48         0.8273          14.17         -76.29          70.14         -160.8          80.83          122.4
    0.7144               -58.8           29.3          40.55          46.44         0.8033           14.1          -76.1          70.13         -160.5          80.87          122.5
    0.7375              -58.74          29.28          40.66           46.4         0.7756          14.02         -75.89          70.12         -160.2          80.91          122.6
    0.7605              -58.67          29.26          40.78          46.36         0.7434          13.94         -75.64          70.11         -159.8          80.97          122.7
    0.7836              -58.58          29.23          40.93          46.31         0.7057          13.83         -75.34          70.09         -159.4          81.03          122.8
    0.8066              -58.49          29.19           41.1          46.24         0.6612          13.71         -74.99          70.07         -158.8           81.1          122.9
    0.8296              -58.37          29.15          41.31          46.17         0.6084          13.56         -74.58          70.05         -158.2          81.19          123.1
    0.8527              -58.23           29.1          41.55          46.08         0.5451          13.39         -74.09          70.02         -157.4          81.29          123.3
    0.8757              -58.05          29.05          41.85          45.97         0.4685          13.18         -73.49          69.99         -156.5          81.41          123.5
    0.8988              -57.85          28.97          42.21          45.84          0.375          12.92         -72.76          69.94         -155.4          81.57          123.8
    0.9218              -57.59          28.89          42.66          45.68         0.2595           12.6         -71.85          69.89         -154.0          81.76          124.1
    0.9449              -57.27          28.78          43.22          45.48         0.1156          12.21         -70.73          69.83         -152.2          81.99          124.6
    0.9679              -56.86          28.64          43.93          45.23       -0.06581          11.71         -69.31          69.75         -150.0          82.29          125.1
